<mxfile host="65bd71144e">
    <diagram id="Ux-dYknk1NQ_N8oXhWNZ" name="Page-1">
        <mxGraphModel dx="1136" dy="513" grid="1" gridSize="10" guides="1" tooltips="1" connect="1" arrows="1" fold="1" page="1" pageScale="1" pageWidth="850" pageHeight="1100" math="0" shadow="0">
            <root>
                <mxCell id="0"/>
                <mxCell id="1" parent="0"/>
                <mxCell id="2" value="register" style="ellipse;whiteSpace=wrap;html=1;fontFamily=Consolas;fontSize=16;fillColor=#fa6800;strokeColor=#C73500;fontColor=#000000;" vertex="1" parent="1">
                    <mxGeometry x="190" y="140" width="80" height="80" as="geometry"/>
                </mxCell>
                <mxCell id="3" value="exe (entrance point)" style="ellipse;whiteSpace=wrap;html=1;fontFamily=Consolas;fontSize=16;" vertex="1" parent="1">
                    <mxGeometry x="60" y="270" width="110" height="80" as="geometry"/>
                </mxCell>
                <mxCell id="4" value="Register the Scans" style="endArrow=classic;html=1;rounded=0;fontSize=16;" edge="1" parent="1" source="3" target="2">
                    <mxGeometry x="-0.1772" y="-1" width="50" height="50" relative="1" as="geometry">
                        <mxPoint x="50" y="630" as="sourcePoint"/>
                        <mxPoint x="200" y="470" as="targetPoint"/>
                        <mxPoint y="1" as="offset"/>
                    </mxGeometry>
                </mxCell>
                <mxCell id="5" value="Activation" style="ellipse;whiteSpace=wrap;html=1;fontFamily=Consolas;fontSize=16;fillColor=#00CC00;" vertex="1" parent="1">
                    <mxGeometry x="10" y="40" width="100" height="80" as="geometry"/>
                </mxCell>
                <mxCell id="6" value="" style="endArrow=classic;html=1;rounded=0;" edge="1" parent="1" source="5" target="2">
                    <mxGeometry width="50" height="50" relative="1" as="geometry">
                        <mxPoint x="470" y="450" as="sourcePoint"/>
                        <mxPoint x="350" y="480" as="targetPoint"/>
                    </mxGeometry>
                </mxCell>
                <mxCell id="7" value="&lt;font style=&quot;font-size: 16px;&quot;&gt;Execute the Scans&lt;/font&gt;" style="edgeLabel;html=1;align=center;verticalAlign=middle;resizable=0;points=[];" connectable="0" vertex="1" parent="6">
                    <mxGeometry x="0.833" y="-4" relative="1" as="geometry">
                        <mxPoint x="-28" y="-27" as="offset"/>
                    </mxGeometry>
                </mxCell>
                <mxCell id="8" value="files" style="ellipse;whiteSpace=wrap;html=1;fontFamily=Consolas;fontSize=16;fillColor=#007FFF;strokeColor=#6c8ebf;" vertex="1" parent="1">
                    <mxGeometry x="290" y="10" width="80" height="80" as="geometry"/>
                </mxCell>
                <mxCell id="9" value="&lt;font style=&quot;font-size: 16px;&quot;&gt;History of Scans&lt;/font&gt;" style="endArrow=classic;html=1;rounded=0;" edge="1" parent="1" source="8" target="2">
                    <mxGeometry x="-0.3495" y="6" width="50" height="50" relative="1" as="geometry">
                        <mxPoint x="1200" y="600" as="sourcePoint"/>
                        <mxPoint x="470" y="490" as="targetPoint"/>
                        <mxPoint as="offset"/>
                    </mxGeometry>
                </mxCell>
                <mxCell id="12" value="" style="endArrow=none;html=1;strokeWidth=2;" edge="1" parent="1">
                    <mxGeometry width="50" height="50" relative="1" as="geometry">
                        <mxPoint x="10" y="370" as="sourcePoint"/>
                        <mxPoint x="400" y="10" as="targetPoint"/>
                        <Array as="points">
                            <mxPoint x="400" y="370"/>
                        </Array>
                    </mxGeometry>
                </mxCell>
                <mxCell id="13" value="#Register" style="rounded=1;whiteSpace=wrap;html=1;fillColor=#fa6800;fontSize=29;fontFamily=Consolas;verticalAlign=top;align=center;fontColor=#000000;strokeColor=#100f0f;" vertex="1" parent="1">
                    <mxGeometry x="180" y="420" width="650" height="620" as="geometry"/>
                </mxCell>
                <mxCell id="14" value="Actions: &lt;font style=&quot;font-size: 16px;&quot;&gt;dict[str, Callable]&lt;/font&gt;" style="swimlane;fontStyle=0;childLayout=stackLayout;horizontal=1;startSize=30;horizontalStack=0;resizeParent=1;resizeParentMax=0;resizeLast=0;collapsible=1;marginBottom=0;whiteSpace=wrap;html=1;strokeColor=#BD7000;fontFamily=Consolas;fontSize=20;fontColor=#000000;fillColor=#f0a30a;" vertex="1" parent="1">
                    <mxGeometry x="280" y="470" width="390" height="120" as="geometry"/>
                </mxCell>
                <mxCell id="15" value="name: scan" style="text;strokeColor=none;fillColor=none;align=left;verticalAlign=middle;spacingLeft=4;spacingRight=4;overflow=hidden;points=[[0,0.5],[1,0.5]];portConstraint=eastwest;rotatable=0;whiteSpace=wrap;html=1;fontFamily=Consolas;fontSize=20;fontColor=#000000;" vertex="1" parent="14">
                    <mxGeometry y="30" width="390" height="30" as="geometry"/>
                </mxCell>
                <mxCell id="16" value="name: analysis" style="text;strokeColor=none;fillColor=none;align=left;verticalAlign=middle;spacingLeft=4;spacingRight=4;overflow=hidden;points=[[0,0.5],[1,0.5]];portConstraint=eastwest;rotatable=0;whiteSpace=wrap;html=1;fontFamily=Consolas;fontSize=20;fontColor=#000000;" vertex="1" parent="14">
                    <mxGeometry y="60" width="390" height="30" as="geometry"/>
                </mxCell>
                <mxCell id="17" value="name: scan2" style="text;strokeColor=none;fillColor=none;align=left;verticalAlign=middle;spacingLeft=4;spacingRight=4;overflow=hidden;points=[[0,0.5],[1,0.5]];portConstraint=eastwest;rotatable=0;whiteSpace=wrap;html=1;fontFamily=Consolas;fontSize=20;fontColor=#000000;" vertex="1" parent="14">
                    <mxGeometry y="90" width="390" height="30" as="geometry"/>
                </mxCell>
                <mxCell id="21" style="edgeStyle=none;html=1;exitX=1;exitY=0.5;exitDx=0;exitDy=0;strokeWidth=2;fontFamily=Consolas;fontSize=20;fontColor=#000000;" edge="1" parent="1" source="19" target="14">
                    <mxGeometry relative="1" as="geometry"/>
                </mxCell>
                <mxCell id="19" value="__setitem__" style="ellipse;whiteSpace=wrap;html=1;strokeColor=#100f0f;fontFamily=Consolas;fontSize=20;fontColor=#000000;fillColor=#fa6800;gradientColor=#18141d;gradientDirection=west;" vertex="1" parent="1">
                    <mxGeometry x="10" y="550" width="190" height="60" as="geometry"/>
                </mxCell>
                <mxCell id="22" style="edgeStyle=none;html=1;strokeWidth=2;fontFamily=Consolas;fontSize=20;fontColor=#000000;entryX=1;entryY=0.5;entryDx=0;entryDy=0;" edge="1" parent="1" source="14" target="20">
                    <mxGeometry relative="1" as="geometry"/>
                </mxCell>
                <mxCell id="20" value="__getitem__" style="ellipse;whiteSpace=wrap;html=1;strokeColor=#100f0f;fontFamily=Consolas;fontSize=20;fontColor=#000000;fillColor=#fa6800;" vertex="1" parent="1">
                    <mxGeometry x="10" y="470" width="190" height="60" as="geometry"/>
                </mxCell>
                <mxCell id="29" style="edgeStyle=none;html=1;strokeWidth=2;fontFamily=Consolas;fontSize=16;fontColor=#000000;" edge="1" parent="1" source="23" target="25">
                    <mxGeometry relative="1" as="geometry"/>
                </mxCell>
                <mxCell id="30" style="edgeStyle=orthogonalEdgeStyle;html=1;strokeWidth=2;fontFamily=Consolas;fontSize=16;fontColor=#000000;" edge="1" parent="1" source="23" target="14">
                    <mxGeometry relative="1" as="geometry">
                        <Array as="points">
                            <mxPoint x="450" y="763"/>
                        </Array>
                    </mxGeometry>
                </mxCell>
                <mxCell id="23" value="start" style="ellipse;whiteSpace=wrap;html=1;strokeColor=#100f0f;fontFamily=Consolas;fontSize=20;fontColor=#000000;fillColor=#fa6800;gradientColor=#00cc00;gradientDirection=west;" vertex="1" parent="1">
                    <mxGeometry x="20" y="733" width="190" height="60" as="geometry"/>
                </mxCell>
                <mxCell id="36" style="edgeStyle=none;html=1;strokeWidth=2;fontFamily=Consolas;fontSize=16;fontColor=#000000;" edge="1" parent="1" source="25" target="35">
                    <mxGeometry relative="1" as="geometry"/>
                </mxCell>
                <mxCell id="25" value="Threads: dict[str, Thread]" style="swimlane;fontStyle=0;childLayout=stackLayout;horizontal=1;startSize=30;horizontalStack=0;resizeParent=1;resizeParentMax=0;resizeLast=0;collapsible=1;marginBottom=0;whiteSpace=wrap;html=1;strokeColor=#BD7000;fontFamily=Consolas;fontSize=20;fontColor=#000000;fillColor=#f0a30a;" vertex="1" parent="1">
                    <mxGeometry x="490" y="703" width="310" height="120" as="geometry"/>
                </mxCell>
                <mxCell id="26" value="&lt;font style=&quot;font-size: 14px;&quot;&gt;name: currently running on thread&lt;/font&gt;" style="text;strokeColor=none;fillColor=none;align=left;verticalAlign=middle;spacingLeft=4;spacingRight=4;overflow=hidden;points=[[0,0.5],[1,0.5]];portConstraint=eastwest;rotatable=0;whiteSpace=wrap;html=1;fontFamily=Consolas;fontSize=20;fontColor=#000000;" vertex="1" parent="25">
                    <mxGeometry y="30" width="310" height="30" as="geometry"/>
                </mxCell>
                <mxCell id="27" value="name: not running" style="text;strokeColor=none;fillColor=none;align=left;verticalAlign=middle;spacingLeft=4;spacingRight=4;overflow=hidden;points=[[0,0.5],[1,0.5]];portConstraint=eastwest;rotatable=0;whiteSpace=wrap;html=1;fontFamily=Consolas;fontSize=20;fontColor=#000000;" vertex="1" parent="25">
                    <mxGeometry y="60" width="310" height="30" as="geometry"/>
                </mxCell>
                <mxCell id="28" value="name: not running" style="text;strokeColor=none;fillColor=none;align=left;verticalAlign=middle;spacingLeft=4;spacingRight=4;overflow=hidden;points=[[0,0.5],[1,0.5]];portConstraint=eastwest;rotatable=0;whiteSpace=wrap;html=1;fontFamily=Consolas;fontSize=20;fontColor=#000000;" vertex="1" parent="25">
                    <mxGeometry y="90" width="310" height="30" as="geometry"/>
                </mxCell>
                <mxCell id="37" style="edgeStyle=orthogonalEdgeStyle;html=1;strokeWidth=2;fontFamily=Consolas;fontSize=20;fontColor=#000000;" edge="1" parent="1" source="23" target="31">
                    <mxGeometry relative="1" as="geometry">
                        <mxPoint x="410" y="770" as="targetPoint"/>
                        <Array as="points">
                            <mxPoint x="400" y="763"/>
                        </Array>
                    </mxGeometry>
                </mxCell>
                <mxCell id="49" style="html=1;strokeWidth=2;fontFamily=Consolas;fontSize=20;fontColor=#000000;" edge="1" parent="1" source="31" target="48">
                    <mxGeometry relative="1" as="geometry"/>
                </mxCell>
                <mxCell id="31" value="history: list" style="swimlane;fontStyle=0;childLayout=stackLayout;horizontal=1;startSize=30;horizontalStack=0;resizeParent=1;resizeParentMax=0;resizeLast=0;collapsible=1;marginBottom=0;whiteSpace=wrap;html=1;strokeColor=#BD7000;fontFamily=Consolas;fontSize=20;fontColor=#000000;fillColor=#f0a30a;" vertex="1" parent="1">
                    <mxGeometry x="340" y="850" width="310" height="120" as="geometry"/>
                </mxCell>
                <mxCell id="32" value="&lt;font style=&quot;font-size: 20px;&quot;&gt;name, start_time, duration&lt;/font&gt;" style="text;strokeColor=none;fillColor=none;align=left;verticalAlign=middle;spacingLeft=4;spacingRight=4;overflow=hidden;points=[[0,0.5],[1,0.5]];portConstraint=eastwest;rotatable=0;whiteSpace=wrap;html=1;fontFamily=Consolas;fontSize=20;fontColor=#000000;" vertex="1" parent="31">
                    <mxGeometry y="30" width="310" height="30" as="geometry"/>
                </mxCell>
                <mxCell id="33" value="name, start_time, duration" style="text;strokeColor=none;fillColor=none;align=left;verticalAlign=middle;spacingLeft=4;spacingRight=4;overflow=hidden;points=[[0,0.5],[1,0.5]];portConstraint=eastwest;rotatable=0;whiteSpace=wrap;html=1;fontFamily=Consolas;fontSize=20;fontColor=#000000;" vertex="1" parent="31">
                    <mxGeometry y="60" width="310" height="30" as="geometry"/>
                </mxCell>
                <mxCell id="34" value="name, start_time, duration" style="text;strokeColor=none;fillColor=none;align=left;verticalAlign=middle;spacingLeft=4;spacingRight=4;overflow=hidden;points=[[0,0.5],[1,0.5]];portConstraint=eastwest;rotatable=0;whiteSpace=wrap;html=1;fontFamily=Consolas;fontSize=20;fontColor=#000000;" vertex="1" parent="31">
                    <mxGeometry y="90" width="310" height="30" as="geometry"/>
                </mxCell>
                <mxCell id="35" value="is_running" style="ellipse;whiteSpace=wrap;html=1;strokeColor=#100f0f;fontFamily=Consolas;fontSize=20;fontColor=#000000;fillColor=#fa6800;" vertex="1" parent="1">
                    <mxGeometry x="20" y="820" width="190" height="60" as="geometry"/>
                </mxCell>
                <mxCell id="45" style="html=1;strokeWidth=2;fontFamily=Consolas;fontSize=20;fontColor=#000000;" edge="1" parent="1" source="41" target="39">
                    <mxGeometry relative="1" as="geometry"/>
                </mxCell>
                <mxCell id="39" value="is_infinite_scan" style="ellipse;whiteSpace=wrap;html=1;strokeColor=#100f0f;fontFamily=Consolas;fontSize=20;fontColor=#000000;fillColor=#fa6800;" vertex="1" parent="1">
                    <mxGeometry x="10" y="630" width="190" height="60" as="geometry"/>
                </mxCell>
                <mxCell id="41" value="infinites: set" style="swimlane;fontStyle=0;childLayout=stackLayout;horizontal=1;startSize=30;horizontalStack=0;resizeParent=1;resizeParentMax=0;resizeLast=0;collapsible=1;marginBottom=0;whiteSpace=wrap;html=1;strokeColor=#BD7000;fontFamily=Consolas;fontSize=20;fontColor=#000000;fillColor=#f0a30a;" vertex="1" parent="1">
                    <mxGeometry x="245" y="613" width="170" height="120" as="geometry"/>
                </mxCell>
                <mxCell id="42" value="&lt;font style=&quot;font-size: 20px;&quot;&gt;name&lt;/font&gt;" style="text;strokeColor=none;fillColor=none;align=left;verticalAlign=middle;spacingLeft=4;spacingRight=4;overflow=hidden;points=[[0,0.5],[1,0.5]];portConstraint=eastwest;rotatable=0;whiteSpace=wrap;html=1;fontFamily=Consolas;fontSize=20;fontColor=#000000;" vertex="1" parent="41">
                    <mxGeometry y="30" width="170" height="30" as="geometry"/>
                </mxCell>
                <mxCell id="43" value="name" style="text;strokeColor=none;fillColor=none;align=left;verticalAlign=middle;spacingLeft=4;spacingRight=4;overflow=hidden;points=[[0,0.5],[1,0.5]];portConstraint=eastwest;rotatable=0;whiteSpace=wrap;html=1;fontFamily=Consolas;fontSize=20;fontColor=#000000;" vertex="1" parent="41">
                    <mxGeometry y="60" width="170" height="30" as="geometry"/>
                </mxCell>
                <mxCell id="44" value="name" style="text;strokeColor=none;fillColor=none;align=left;verticalAlign=middle;spacingLeft=4;spacingRight=4;overflow=hidden;points=[[0,0.5],[1,0.5]];portConstraint=eastwest;rotatable=0;whiteSpace=wrap;html=1;fontFamily=Consolas;fontSize=20;fontColor=#000000;" vertex="1" parent="41">
                    <mxGeometry y="90" width="170" height="30" as="geometry"/>
                </mxCell>
                <mxCell id="46" style="edgeStyle=none;html=1;strokeWidth=2;fontFamily=Consolas;fontSize=20;fontColor=#000000;" edge="1" parent="1" source="19" target="41">
                    <mxGeometry relative="1" as="geometry">
                        <mxPoint x="210.00000000000136" y="590" as="sourcePoint"/>
                        <mxPoint x="290.0000000000002" y="575.4545454545455" as="targetPoint"/>
                    </mxGeometry>
                </mxCell>
                <mxCell id="48" value="get_history" style="ellipse;whiteSpace=wrap;html=1;strokeColor=#100f0f;fontFamily=Consolas;fontSize=20;fontColor=#000000;fillColor=#fa6800;gradientColor=#007fff;gradientDirection=west;" vertex="1" parent="1">
                    <mxGeometry x="20" y="900" width="190" height="60" as="geometry"/>
                </mxCell>
            </root>
        </mxGraphModel>
    </diagram>
</mxfile>
